<?xml version="1.0" encoding="UTF-8" standalone="no"?>
<!DOCTYPE svg PUBLIC "-//W3C//DTD SVG 1.1//EN" "http://www.w3.org/Graphics/SVG/1.1/DTD/svg11.dtd">
<svg width="100%" height="100%" viewBox="0 0 24 24" version="1.1" xmlns="http://www.w3.org/2000/svg" xmlns:xlink="http://www.w3.org/1999/xlink" xml:space="preserve" xmlns:serif="http://www.serif.com/" style="fill-rule:evenodd;clip-rule:evenodd;stroke-linecap:round;stroke-linejoin:round;stroke-miterlimit:1.5;">
    <g transform="matrix(1,0,0,1,-30,-30)">
        <g id="Full-screen" serif:id="Full screen">
            <g transform="matrix(1,0,0,-1,0,84)">
                <path d="M32,32L32,38L34,38L34,34L38,34L38,32L32,32Z" style="fill:white;"/>
            </g>
            <path d="M32,32L32,38L34,38L34,34L38,34L38,32L32,32Z" style="fill:white;"/>
            <g transform="matrix(0.928571,-0.0714286,-0.0714286,0.928571,4.71429,4.71429)">
                <path d="M33,33L40,40" style="fill:none;stroke:white;stroke-width:2.33px;"/>
            </g>
            <g transform="matrix(-0.0714286,-0.928571,0.928571,0.0714286,4.71429,79.2857)">
                <path d="M33,33L40,40" style="fill:none;stroke:white;stroke-width:2.33px;"/>
            </g>
            <g transform="matrix(-0.0714286,-0.928571,0.928571,0.0714286,16.7143,67.2857)">
                <path d="M33,33L40,40" style="fill:none;stroke:white;stroke-width:2.33px;"/>
            </g>
            <g transform="matrix(0.928571,-0.0714286,-0.0714286,0.928571,16.7143,16.7143)">
                <path d="M33,33L40,40" style="fill:none;stroke:white;stroke-width:2.33px;"/>
            </g>
            <g transform="matrix(-1,0,0,1,84,0)">
                <path d="M32,32L32,38L34,38L34,34L38,34L38,32L32,32Z" style="fill:white;"/>
            </g>
            <g transform="matrix(-1,0,0,-1,84,84)">
                <path d="M32,32L32,38L34,38L34,34L38,34L38,32L32,32Z" style="fill:white;"/>
            </g>
        </g>
        <g id="Update">
        </g>
        <g id="Download">
        </g>
        <g id="Hamburger">
        </g>
        <g id="Compas">
        </g>
        <g id="Sun">
        </g>
        <g id="Twilight">
        </g>
        <g id="Position">
        </g>
    </g>
</svg>
