<?xml version="1.0" encoding="UTF-8" standalone="no"?>
<!DOCTYPE svg PUBLIC "-//W3C//DTD SVG 1.1//EN" "http://www.w3.org/Graphics/SVG/1.1/DTD/svg11.dtd">
<svg width="100%" height="100%" viewBox="0 0 24 24" version="1.1" xmlns="http://www.w3.org/2000/svg" xmlns:xlink="http://www.w3.org/1999/xlink" xml:space="preserve" xmlns:serif="http://www.serif.com/" style="fill-rule:evenodd;clip-rule:evenodd;stroke-linecap:round;stroke-linejoin:round;stroke-miterlimit:1.5;">
    <g transform="matrix(1,0,0,1,-90,0)">
        <g id="Hamburger">
        </g>
        <g id="Compas">
        </g>
        <g id="Sun">
            <g transform="matrix(1,0,0,1,36,-8)">
                <path d="M74,20L72,20" style="fill:none;stroke:white;stroke-width:2px;"/>
            </g>
            <g transform="matrix(1,0,0,1,22,-8)">
                <path d="M74,20L72,20" style="fill:none;stroke:white;stroke-width:2px;"/>
            </g>
            <g transform="matrix(0.5,0.866025,-0.866025,0.5,79.3205,-67.282)">
                <path d="M74,20L72,20" style="fill:none;stroke:white;stroke-width:2px;"/>
            </g>
            <g transform="matrix(0.5,-0.866025,0.866025,0.5,44.6795,71.282)">
                <path d="M74,20L72,20" style="fill:none;stroke:white;stroke-width:2px;"/>
            </g>
            <g transform="matrix(-0.5,-0.866025,0.866025,-0.5,124.679,91.282)">
                <path d="M74,20L72,20" style="fill:none;stroke:white;stroke-width:2px;"/>
            </g>
            <g transform="matrix(-0.5,0.866025,-0.866025,-0.5,159.321,-47.282)">
                <path d="M74,20L72,20" style="fill:none;stroke:white;stroke-width:2px;"/>
            </g>
            <g transform="matrix(1.33333,0,0,1.6,-38,-11.2)">
                <ellipse cx="105" cy="14.5" rx="3" ry="2.5" style="fill:white;"/>
            </g>
        </g>
        <g id="Position">
        </g>
    </g>
</svg>
