<?xml version="1.0" encoding="UTF-8" standalone="no"?>
<!DOCTYPE svg PUBLIC "-//W3C//DTD SVG 1.1//EN" "http://www.w3.org/Graphics/SVG/1.1/DTD/svg11.dtd">
<svg width="100%" height="100%" viewBox="0 0 24 24" version="1.1" xmlns="http://www.w3.org/2000/svg" xmlns:xlink="http://www.w3.org/1999/xlink" xml:space="preserve" xmlns:serif="http://www.serif.com/" style="fill-rule:evenodd;clip-rule:evenodd;stroke-linecap:round;stroke-linejoin:round;stroke-miterlimit:1.5;">
    <g transform="matrix(1,0,0,1,-90,-30)">
        <g id="Full-screen" serif:id="Full screen">
        </g>
        <g id="Update">
            <g transform="matrix(3.5,0,0,3.5,-262,-112)">
                <path d="M105,42.268C104.696,42.092 104.351,42 104,42C102.895,42 102,42.895 102,44C102,42.895 102.895,42 104,42C104.351,42 104.696,42.092 105,42.268Z" style="fill:none;stroke:white;stroke-width:0.57px;"/>
            </g>
            <g transform="matrix(-3.5,0,0,-3.5,466,196)">
                <path d="M105,42.268C104.696,42.092 104.351,42 104,42C102.895,42 102,42.895 102,44C102,42.895 102.895,42 104,42C104.351,42 104.696,42.092 105,42.268Z" style="fill:none;stroke:white;stroke-width:0.57px;"/>
            </g>
            <g transform="matrix(1.5,0,0,2.5,-47.5,-58)">
                <path d="M95,42L93,40L97,40L95,42Z" style="fill:white;"/>
            </g>
            <g transform="matrix(1.5,0,0,2.5,-54.5,-68)">
                <path d="M109,42L111,44L107,44L109,42Z" style="fill:white;"/>
            </g>
        </g>
        <g id="Download">
        </g>
        <g id="Hamburger">
        </g>
        <g id="Compas">
        </g>
        <g id="Sun">
        </g>
        <g id="Twilight">
        </g>
        <g id="Position">
        </g>
    </g>
</svg>
